<svg width="109" height="34" fill="none" xmlns="http://www.w3.org/2000/svg"><path d="M21.737 16.09L0 28.535l19.532-3.643 2.205 3.643v-2.429l2.835 2.429-1.575-5.161 1.575 1.518v-2.429l3.15 4.554 4.726 1.518-.945-1.518 12.916-7.59h1.89l9.136 10.018-1.89-6.071v-2.429l-1.575 1.518 1.575-14.268 7.56 3.036 4.096 3.643-.945-3.643 18.902 17.304h1.89l3.15-1.518L95.138 34l-4.725-7.893 9.136 2.429L109 32.482l-4.725-5.464-4.726-3.643-2.205 1.518-7.876-7.286-6.3 3.34L67.1 8.196h-4.725L53.555 0 42.844 10.321l-4.41.911-10.711 9.714-5.986-4.857z" fill="#fff"/></svg>